<?xml version="1.0" encoding="UTF-8" standalone="no"?>
<svg
   width="32"
   height="32"
   version="1.1"
   id="svg2"
   sodipodi:docname="start.svg"
   inkscape:version="1.3.2 (091e20ef0f, 2023-11-25, custom)"
   xmlns:inkscape="http://www.inkscape.org/namespaces/inkscape"
   xmlns:sodipodi="http://sodipodi.sourceforge.net/DTD/sodipodi-0.dtd"
   xmlns="http://www.w3.org/2000/svg"
   xmlns:svg="http://www.w3.org/2000/svg">
  <sodipodi:namedview
     id="namedview2"
     pagecolor="#ffffff"
     bordercolor="#000000"
     borderopacity="0.25"
     inkscape:showpageshadow="2"
     inkscape:pageopacity="0.0"
     inkscape:pagecheckerboard="0"
     inkscape:deskcolor="#d1d1d1"
     inkscape:zoom="17.766058"
     inkscape:cx="44.297953"
     inkscape:cy="16.829845"
     inkscape:window-width="1920"
     inkscape:window-height="1008"
     inkscape:window-x="0"
     inkscape:window-y="0"
     inkscape:window-maximized="1"
     inkscape:current-layer="svg2" />
  <defs
     id="materia">
    <style
       id="current-color-scheme"
       type="text/css">
   .ColorScheme-Background {color:#181818; } .ColorScheme-ButtonBackground { color:#343434; } .ColorScheme-Highlight { color:#4285f4; } .ColorScheme-Text { color:#dfdfdf; } .ColorScheme-ViewBackground { color:#242424; } .ColorScheme-NegativeText { color:#f44336; } .ColorScheme-PositiveText { color:#4caf50; } .ColorScheme-NeutralText { color:#ff9800; }
  </style>
  </defs>
  <g
     id="22-22-start-here-kde"
     transform="translate(27,5.0000005)">
    <rect
       style="opacity:0.001"
       width="22"
       height="22"
       x="5"
       y="5"
       id="rect1" />
    <path
       id="path2977"
       style="fill:currentColor;stroke-width:0.4"
       d="M 12.5 7.9999995 C 11.669001 7.9999995 11 8.6690003 11 9.4999995 C 11 10.330999 11.669001 10.999999 12.5 11 C 13.330999 11 14 10.330999 14 9.4999995 C 14 8.6690003 13.330999 7.9999995 12.5 7.9999995 z M 18.285156 7.9999995 L 16 10.240234 L 19.429688 13.599609 L 16 16.960937 L 18.285156 19.199218 L 24 13.599609 L 18.285156 7.9999995 z M 9.75 14 C 8.780501 14 8 14.7805 8 15.75 C 8 16.719499 8.780501 17.499999 9.75 17.5 C 10.719499 17.5 11.5 16.719499 11.5 15.75 C 11.5 14.7805 10.719499 14 9.75 14 z M 13.5 19 C 12.115001 19 11 20.115 11 21.5 C 11 22.884998 12.115001 24 13.5 24 C 14.884999 24 16 22.884998 16 21.5 C 16 20.115 14.884999 19 13.5 19 z "
       class="ColorScheme-Text" />
  </g>
  <g
     id="start-here-kde">
    <rect
       style="opacity:0.001"
       width="32"
       height="32"
       x="0"
       y="0"
       id="rect2" />
    <path
       id="path2977-3"
       style="fill:currentColor&#10;;stroke-width:0.6"
       d="M 10.75,4 C 9.503502,4 8.5,5.0035011 8.5,6.25 8.5,7.4964993 9.503502,8.4999993 10.75,8.5000007 11.996498,8.5000007 13,7.4964993 13,6.25 13,5.0035011 11.996498,4 10.75,4 Z M 19.427734,4 16,7.3603518 21.144531,12.399415 16,17.441407 19.427734,20.798827 28,12.399415 Z M 6.625,13.000001 c -1.4542485,0 -2.625,1.17075 -2.625,2.625 0,1.454249 1.1707515,2.624999 2.625,2.625 1.4542485,0 2.625,-1.170751 2.625,-2.625 0,-1.45425 -1.1707515,-2.625 -2.625,-2.625 z M 12.25,20.5 C 10.172502,20.5 8.5,22.172499 8.5,24.25 8.5,26.327497 10.172502,28 12.25,28 14.327498,28 16,26.327497 16,24.25 16,22.172499 14.327498,20.5 12.25,20.5 Z"
       class="ColorScheme-Text" />
  </g>
</svg>
